<svg viewBox="0 0 460 150" xmlns="http://www.w3.org/2000/svg" version="1.1" preserveAspectRatio="xMidYMid meet">
  <style type="text/css">
    @import url(http://fonts.googleapis.com/css?family=Orbitron);
  </style>
  <text font-family="Orbitron" font-size="55px" fill="#0082B6" font-weight="bold" font-style="normal" id="text" y="90" x="63">ode4Dream</text>
  <path fill="#0082B6" d="m8.3,75.400002c0,0 0,0 0,0c0,0 0,0 0,0l0,0z" id="path_1"/>
  <path fill="#0082B6" d="m62.200001,120.099998l-25.799999,-44.599998l0,0h-28.100001c0.099999,2.099998 0.599999,4.199997 1.7,6.099998l33.5,58.000008c2.299999,4 6.599998,6.5 11.200001,6.5h79.499996c2.400009,0 3.699997,-3 1.900009,-4.700012l-16.700005,-16.699997c-2.900002,-2.899994 -6.800003,-4.5 -10.900002,-4.5h-46.299999l0,-0.099998l0,0l0,0l0,0l0,0l0,0l0,0l0,0l0,0l0,0z" id="path_2"/>
  <path fill="#009EDD" d="m36.400002,75.5l25.799999,-44.6h46.799999c4.099998,0 8,-1.6 10.900002,-4.5l16.700005,-16.7c1.699997,-1.7 0.5,-4.7 -1.900009,-4.7h-79.999996c-4.600002,0 -8.900002,2.5 -11.200001,6.5l-33.50009,57.800003c-1.1,1.899994 -1.6,4 -1.700001,6.099998c0,0 0,0 0,0c0,0 0,0 0,0h0l28.100092,0.099998l0,0l0,0l0,0l0,0l0,0l0,0l0,0l0,0l0,0l0,0z" id="path_3"/>
</svg>